<mxfile host="app.diagrams.net" modified="2022-06-09T02:41:35.520Z" agent="5.0 (Macintosh; Intel Mac OS X 10_15_7) AppleWebKit/605.1.15 (KHTML, like Gecko) Version/15.5 Safari/605.1.15" etag="9m__orZDf4ty_8LjMJBy" version="19.0.0" type="github">
  <diagram id="l3QEwm9TnRtwAAaQ0Mxf" name="Page-1">
    <mxGraphModel dx="1327" dy="799" grid="1" gridSize="10" guides="1" tooltips="1" connect="1" arrows="1" fold="1" page="1" pageScale="1" pageWidth="1169" pageHeight="827" math="0" shadow="0">
      <root>
        <mxCell id="0" />
        <mxCell id="1" parent="0" />
        <mxCell id="f55TtAqqcBwU_aMVsykr-23" style="edgeStyle=orthogonalEdgeStyle;rounded=0;orthogonalLoop=1;jettySize=auto;html=1;exitX=1;exitY=0.5;exitDx=0;exitDy=0;entryX=0;entryY=0.5;entryDx=0;entryDy=0;fontSize=18;startArrow=none;startFill=0;endArrow=none;endFill=0;" edge="1" parent="1" source="f55TtAqqcBwU_aMVsykr-1" target="f55TtAqqcBwU_aMVsykr-2">
          <mxGeometry relative="1" as="geometry" />
        </mxCell>
        <mxCell id="f55TtAqqcBwU_aMVsykr-26" style="edgeStyle=orthogonalEdgeStyle;rounded=0;orthogonalLoop=1;jettySize=auto;html=1;exitX=0.5;exitY=1;exitDx=0;exitDy=0;entryX=0.5;entryY=0;entryDx=0;entryDy=0;fontSize=18;startArrow=none;startFill=0;endArrow=classic;endFill=1;" edge="1" parent="1" source="f55TtAqqcBwU_aMVsykr-1" target="f55TtAqqcBwU_aMVsykr-25">
          <mxGeometry relative="1" as="geometry" />
        </mxCell>
        <mxCell id="f55TtAqqcBwU_aMVsykr-1" value="&lt;font style=&quot;font-size: 18px;&quot;&gt;前端&lt;/font&gt;" style="rounded=1;whiteSpace=wrap;html=1;" vertex="1" parent="1">
          <mxGeometry x="90" y="110" width="120" height="60" as="geometry" />
        </mxCell>
        <mxCell id="f55TtAqqcBwU_aMVsykr-22" style="edgeStyle=orthogonalEdgeStyle;rounded=0;orthogonalLoop=1;jettySize=auto;html=1;exitX=0.5;exitY=1;exitDx=0;exitDy=0;entryX=0.5;entryY=0.814;entryDx=0;entryDy=0;entryPerimeter=0;fontSize=18;startArrow=none;startFill=0;endArrow=none;endFill=0;" edge="1" parent="1" source="f55TtAqqcBwU_aMVsykr-2" target="f55TtAqqcBwU_aMVsykr-12">
          <mxGeometry relative="1" as="geometry" />
        </mxCell>
        <mxCell id="f55TtAqqcBwU_aMVsykr-24" style="edgeStyle=orthogonalEdgeStyle;rounded=0;orthogonalLoop=1;jettySize=auto;html=1;exitX=1;exitY=0.5;exitDx=0;exitDy=0;entryX=0;entryY=0.5;entryDx=0;entryDy=0;fontSize=18;startArrow=none;startFill=0;endArrow=none;endFill=0;" edge="1" parent="1" source="f55TtAqqcBwU_aMVsykr-2" target="f55TtAqqcBwU_aMVsykr-3">
          <mxGeometry relative="1" as="geometry" />
        </mxCell>
        <mxCell id="f55TtAqqcBwU_aMVsykr-2" value="&lt;font size=&quot;4&quot;&gt;服务端&lt;/font&gt;" style="rounded=1;whiteSpace=wrap;html=1;" vertex="1" parent="1">
          <mxGeometry x="540" y="110" width="120" height="60" as="geometry" />
        </mxCell>
        <mxCell id="f55TtAqqcBwU_aMVsykr-28" style="edgeStyle=orthogonalEdgeStyle;rounded=0;orthogonalLoop=1;jettySize=auto;html=1;exitX=0.5;exitY=1;exitDx=0;exitDy=0;entryX=0.5;entryY=0;entryDx=0;entryDy=0;fontSize=18;startArrow=none;startFill=0;endArrow=classic;endFill=1;" edge="1" parent="1" source="f55TtAqqcBwU_aMVsykr-3" target="f55TtAqqcBwU_aMVsykr-27">
          <mxGeometry relative="1" as="geometry" />
        </mxCell>
        <mxCell id="f55TtAqqcBwU_aMVsykr-3" value="&lt;font style=&quot;font-size: 18px;&quot;&gt;MySQL&lt;/font&gt;" style="rounded=1;whiteSpace=wrap;html=1;" vertex="1" parent="1">
          <mxGeometry x="990" y="110" width="120" height="60" as="geometry" />
        </mxCell>
        <mxCell id="f55TtAqqcBwU_aMVsykr-38" style="edgeStyle=orthogonalEdgeStyle;rounded=0;orthogonalLoop=1;jettySize=auto;html=1;exitX=0.5;exitY=1;exitDx=0;exitDy=0;entryX=0.5;entryY=0;entryDx=0;entryDy=0;fontSize=18;startArrow=none;startFill=0;endArrow=classic;endFill=1;" edge="1" parent="1" source="f55TtAqqcBwU_aMVsykr-4" target="f55TtAqqcBwU_aMVsykr-33">
          <mxGeometry relative="1" as="geometry" />
        </mxCell>
        <mxCell id="f55TtAqqcBwU_aMVsykr-4" value="客户管理" style="ellipse;whiteSpace=wrap;html=1;fontSize=18;" vertex="1" parent="1">
          <mxGeometry x="840" y="240" width="120" height="80" as="geometry" />
        </mxCell>
        <mxCell id="f55TtAqqcBwU_aMVsykr-35" style="edgeStyle=orthogonalEdgeStyle;rounded=0;orthogonalLoop=1;jettySize=auto;html=1;exitX=0.5;exitY=1;exitDx=0;exitDy=0;entryX=0.5;entryY=0;entryDx=0;entryDy=0;fontSize=18;startArrow=none;startFill=0;endArrow=classic;endFill=1;" edge="1" parent="1" source="f55TtAqqcBwU_aMVsykr-5" target="f55TtAqqcBwU_aMVsykr-30">
          <mxGeometry relative="1" as="geometry" />
        </mxCell>
        <mxCell id="f55TtAqqcBwU_aMVsykr-5" value="账户管理" style="ellipse;whiteSpace=wrap;html=1;fontSize=18;" vertex="1" parent="1">
          <mxGeometry x="390" y="240" width="120" height="80" as="geometry" />
        </mxCell>
        <mxCell id="f55TtAqqcBwU_aMVsykr-17" style="edgeStyle=orthogonalEdgeStyle;rounded=0;orthogonalLoop=1;jettySize=auto;html=1;exitX=0.5;exitY=0;exitDx=0;exitDy=0;entryX=0.5;entryY=0.529;entryDx=0;entryDy=0;entryPerimeter=0;fontSize=18;startArrow=classic;startFill=1;endArrow=none;endFill=0;" edge="1" parent="1" source="f55TtAqqcBwU_aMVsykr-6" target="f55TtAqqcBwU_aMVsykr-12">
          <mxGeometry relative="1" as="geometry" />
        </mxCell>
        <mxCell id="f55TtAqqcBwU_aMVsykr-36" style="edgeStyle=orthogonalEdgeStyle;rounded=0;orthogonalLoop=1;jettySize=auto;html=1;exitX=0.5;exitY=1;exitDx=0;exitDy=0;entryX=0.5;entryY=0;entryDx=0;entryDy=0;fontSize=18;startArrow=none;startFill=0;endArrow=classic;endFill=1;" edge="1" parent="1" source="f55TtAqqcBwU_aMVsykr-6" target="f55TtAqqcBwU_aMVsykr-31">
          <mxGeometry relative="1" as="geometry" />
        </mxCell>
        <mxCell id="f55TtAqqcBwU_aMVsykr-6" value="贷款管理" style="ellipse;whiteSpace=wrap;html=1;fontSize=18;" vertex="1" parent="1">
          <mxGeometry x="540" y="240" width="120" height="80" as="geometry" />
        </mxCell>
        <mxCell id="f55TtAqqcBwU_aMVsykr-37" style="edgeStyle=orthogonalEdgeStyle;rounded=0;orthogonalLoop=1;jettySize=auto;html=1;exitX=0.5;exitY=1;exitDx=0;exitDy=0;entryX=0.5;entryY=0;entryDx=0;entryDy=0;fontSize=18;startArrow=none;startFill=0;endArrow=classic;endFill=1;" edge="1" parent="1" source="f55TtAqqcBwU_aMVsykr-7" target="f55TtAqqcBwU_aMVsykr-32">
          <mxGeometry relative="1" as="geometry" />
        </mxCell>
        <mxCell id="f55TtAqqcBwU_aMVsykr-7" value="业务统计" style="ellipse;whiteSpace=wrap;html=1;fontSize=18;" vertex="1" parent="1">
          <mxGeometry x="690" y="240" width="120" height="80" as="geometry" />
        </mxCell>
        <mxCell id="f55TtAqqcBwU_aMVsykr-34" style="edgeStyle=orthogonalEdgeStyle;rounded=0;orthogonalLoop=1;jettySize=auto;html=1;exitX=0.5;exitY=1;exitDx=0;exitDy=0;entryX=0.5;entryY=0;entryDx=0;entryDy=0;fontSize=18;startArrow=none;startFill=0;endArrow=classic;endFill=1;" edge="1" parent="1" source="f55TtAqqcBwU_aMVsykr-8" target="f55TtAqqcBwU_aMVsykr-29">
          <mxGeometry relative="1" as="geometry" />
        </mxCell>
        <mxCell id="f55TtAqqcBwU_aMVsykr-8" value="用户管理" style="ellipse;whiteSpace=wrap;html=1;fontSize=18;" vertex="1" parent="1">
          <mxGeometry x="240" y="240" width="120" height="80" as="geometry" />
        </mxCell>
        <mxCell id="f55TtAqqcBwU_aMVsykr-13" style="edgeStyle=orthogonalEdgeStyle;rounded=0;orthogonalLoop=1;jettySize=auto;html=1;exitX=0;exitY=0.5;exitDx=0;exitDy=0;exitPerimeter=0;entryX=0.5;entryY=0;entryDx=0;entryDy=0;fontSize=18;" edge="1" parent="1" source="f55TtAqqcBwU_aMVsykr-12" target="f55TtAqqcBwU_aMVsykr-8">
          <mxGeometry relative="1" as="geometry" />
        </mxCell>
        <mxCell id="f55TtAqqcBwU_aMVsykr-14" style="edgeStyle=orthogonalEdgeStyle;rounded=0;orthogonalLoop=1;jettySize=auto;html=1;exitX=0.25;exitY=0.5;exitDx=0;exitDy=0;exitPerimeter=0;entryX=0.5;entryY=0;entryDx=0;entryDy=0;fontSize=18;" edge="1" parent="1" source="f55TtAqqcBwU_aMVsykr-12" target="f55TtAqqcBwU_aMVsykr-5">
          <mxGeometry relative="1" as="geometry" />
        </mxCell>
        <mxCell id="f55TtAqqcBwU_aMVsykr-15" style="edgeStyle=orthogonalEdgeStyle;rounded=0;orthogonalLoop=1;jettySize=auto;html=1;exitX=0.75;exitY=0.5;exitDx=0;exitDy=0;exitPerimeter=0;entryX=0.5;entryY=0;entryDx=0;entryDy=0;fontSize=18;" edge="1" parent="1" source="f55TtAqqcBwU_aMVsykr-12" target="f55TtAqqcBwU_aMVsykr-7">
          <mxGeometry relative="1" as="geometry" />
        </mxCell>
        <mxCell id="f55TtAqqcBwU_aMVsykr-16" style="edgeStyle=orthogonalEdgeStyle;rounded=0;orthogonalLoop=1;jettySize=auto;html=1;exitX=1;exitY=0.5;exitDx=0;exitDy=0;exitPerimeter=0;entryX=0.5;entryY=0;entryDx=0;entryDy=0;fontSize=18;" edge="1" parent="1" source="f55TtAqqcBwU_aMVsykr-12" target="f55TtAqqcBwU_aMVsykr-4">
          <mxGeometry relative="1" as="geometry" />
        </mxCell>
        <mxCell id="f55TtAqqcBwU_aMVsykr-12" value="" style="line;strokeWidth=1;html=1;fontSize=18;" vertex="1" parent="1">
          <mxGeometry x="300" y="200" width="600" height="10" as="geometry" />
        </mxCell>
        <mxCell id="f55TtAqqcBwU_aMVsykr-25" value="界面展示" style="ellipse;whiteSpace=wrap;html=1;fontSize=18;" vertex="1" parent="1">
          <mxGeometry x="90" y="240" width="120" height="80" as="geometry" />
        </mxCell>
        <mxCell id="f55TtAqqcBwU_aMVsykr-27" value="存储管理" style="ellipse;whiteSpace=wrap;html=1;fontSize=18;" vertex="1" parent="1">
          <mxGeometry x="990" y="240" width="120" height="80" as="geometry" />
        </mxCell>
        <mxCell id="f55TtAqqcBwU_aMVsykr-29" value="登录、注册" style="rounded=0;whiteSpace=wrap;html=1;fontSize=18;strokeWidth=1;" vertex="1" parent="1">
          <mxGeometry x="245" y="384" width="110" height="60" as="geometry" />
        </mxCell>
        <mxCell id="f55TtAqqcBwU_aMVsykr-30" value="增删改查" style="rounded=0;whiteSpace=wrap;html=1;fontSize=18;strokeWidth=1;" vertex="1" parent="1">
          <mxGeometry x="395" y="384" width="110" height="60" as="geometry" />
        </mxCell>
        <mxCell id="f55TtAqqcBwU_aMVsykr-31" value="增删改查" style="rounded=0;whiteSpace=wrap;html=1;fontSize=18;strokeWidth=1;" vertex="1" parent="1">
          <mxGeometry x="545" y="384" width="110" height="60" as="geometry" />
        </mxCell>
        <mxCell id="f55TtAqqcBwU_aMVsykr-32" value="按年、季度、月查询" style="rounded=0;whiteSpace=wrap;html=1;fontSize=18;strokeWidth=1;" vertex="1" parent="1">
          <mxGeometry x="695" y="384" width="110" height="60" as="geometry" />
        </mxCell>
        <mxCell id="f55TtAqqcBwU_aMVsykr-33" value="增删改查" style="rounded=0;whiteSpace=wrap;html=1;fontSize=18;strokeWidth=1;" vertex="1" parent="1">
          <mxGeometry x="845" y="384" width="110" height="60" as="geometry" />
        </mxCell>
      </root>
    </mxGraphModel>
  </diagram>
</mxfile>
